<?xml version="1.0" encoding="UTF-8" standalone="no"?>
<svg width="9px" height="11px" viewBox="0 0 9 11" version="1.1" xmlns="http://www.w3.org/2000/svg" xmlns:xlink="http://www.w3.org/1999/xlink" xmlns:sketch="http://www.bohemiancoding.com/sketch/ns">
    <!-- Generator: Sketch 3.0.4 (8053) - http://www.bohemiancoding.com/sketch -->
    <title>Shape 5</title>
    <desc>Created with Sketch.</desc>
    <defs></defs>
    <g id="ATS-Help" stroke="none" stroke-width="1" fill="none" fill-rule="evenodd" sketch:type="MSPage">
        <g id="Artboard-1" sketch:type="MSArtboardGroup" transform="translate(-7203.000000, -1099.000000)" fill="#FFFFFF">
            <g id="Suggestion---Help-1" sketch:type="MSLayerGroup" transform="translate(6987.000000, 138.000000)">
                <g id="Recommended-tile\=-2" transform="translate(105.000000, 592.000000)" sketch:type="MSShapeGroup">
                    <g id="Shape-5">
                        <path d="M115.606514,369.233911 C113.480045,369.233911 111.81505,370.944262 111.81505,373.128218 C111.81505,375.22146 113.514854,376.993518 115.527932,376.993518 C117.597442,376.993518 119.280896,375.25996 119.280896,373.128218 C119.280896,370.980653 117.632777,369.233911 115.606514,369.233911 L115.606514,369.233911 Z M115.527932,375.479358 C114.306478,375.479358 113.313388,374.424562 113.313388,373.128218 C113.313388,372.480045 113.533313,371.908873 113.951012,371.47588 C114.348143,371.034975 114.967835,370.747016 115.527932,370.747016 C116.792105,370.747016 117.782031,371.792318 117.782031,373.128218 C117.782031,374.467808 116.813728,375.479358 115.527932,375.479358 L115.527932,375.479358 Z M115.5,378 C113.974445,378 112.590321,378.797307 112,380 L119,380 C118.408561,378.797307 117.024996,378 115.5,378 L115.5,378 Z"></path>
                    </g>
                </g>
            </g>
        </g>
    </g>
</svg>