<?xml version="1.0" encoding="UTF-8" standalone="no"?>
<svg width="41px" height="50px" viewBox="0 0 41 50" version="1.1" xmlns="http://www.w3.org/2000/svg" xmlns:xlink="http://www.w3.org/1999/xlink" xmlns:sketch="http://www.bohemiancoding.com/sketch/ns">
    <!-- Generator: Sketch 3.0.4 (8053) - http://www.bohemiancoding.com/sketch -->
    <title>time-9-icon</title>
    <desc>Created with Sketch.</desc>
    <defs></defs>
    <g id="ATS-Help" stroke="none" stroke-width="1" fill="none" fill-rule="evenodd" sketch:type="MSPage">
        <g id="Artboard-1" sketch:type="MSArtboardGroup" transform="translate(-8413.000000, -498.000000)" fill="#9F9F9F">
            <g id="Suggestion---Help-1" sketch:type="MSLayerGroup" transform="translate(8278.000000, 138.000000)">
                <g id="Inline-walkthrough" transform="translate(104.000000, 336.000000)" sketch:type="MSShapeGroup">
                    <path d="M62,31.4493196 L64.3359305,28 L68,30.5664916 L65.6746438,34 C64.5416296,33.0298718 63.3115539,32.1729064 62,31.4493196 L62,31.4493196 Z M48,24 L48,30 C49.1517333,29.8072996 50.3312333,29.7067986 51.5323167,29.7067986 C52.7108833,29.7067986 53.8689167,29.8034003 55,29.988931 L55,24 L48,24 L48,24 Z M72,53.4999403 C72,64.8217473 62.8221715,74 51.4999403,74 C40.1779479,74 31,64.8217473 31,53.4999403 C31,42.1782527 40.1779479,33 51.4999403,33 C62.8221715,32.9998806 72,42.1781333 72,53.4999403 L72,53.4999403 Z M67,53.4999388 C67,44.9322386 60.0661163,38 51.4999388,38 C42.9321709,38 36,44.9340737 36,53.4999388 C36,62.0676391 42.9340061,69 51.4999388,69 C60.0678291,69 67,62.066171 67,53.4999388 L67,53.4999388 Z M56,54.1778266 C56,56.288637 54.2090159,58 52,58 C49.7908571,58 48,56.288637 48,54.1778266 C48,52.8065763 48.7561905,51.6045938 49.8914286,50.9300712 L51.3549206,40.4212783 C51.3848889,40.1847889 51.592381,40.0053288 51.8416508,40.0001112 C52.0907937,39.995015 52.3061587,40.1656174 52.3470476,40.4006507 L54.039746,50.8900294 C55.2129524,51.5561796 56,52.7789111 56,54.1778266 L56,54.1778266 Z" id="time-9-icon"></path>
                </g>
            </g>
        </g>
    </g>
</svg>