<?xml version="1.0" encoding="UTF-8" standalone="no"?>
<svg width="41px" height="50px" viewBox="0 0 41 50" version="1.1" xmlns="http://www.w3.org/2000/svg" xmlns:xlink="http://www.w3.org/1999/xlink" xmlns:sketch="http://www.bohemiancoding.com/sketch/ns">
    <!-- Generator: Sketch 3.1 (8751) - http://www.bohemiancoding.com/sketch -->
    <title>time-9-icon</title>
    <desc>Created with Sketch.</desc>
    <defs></defs>
    <g id="Page-1" stroke="none" stroke-width="1" fill="none" fill-rule="evenodd" sketch:type="MSPage">
        <g id="Trial_Project" sketch:type="MSLayerGroup" fill="#000000">
            <g id="ATS-Help" sketch:type="MSShapeGroup">
                <g id="Artboard-1">
                    <g id="Suggestion---Help-1">
                        <g id="Inline-walkthrough">
                            <path d="M31,7.4493196 L33.3359305,4 L37,6.5664916 L34.6746438,10 C33.5416296,9.0298718 32.3115539,8.1729064 31,7.4493196 L31,7.4493196 L31,7.4493196 Z M17,0 L17,6 C18.1517333,5.8072996 19.3312333,5.7067986 20.5323167,5.7067986 C21.7108833,5.7067986 22.8689167,5.8034003 24,5.988931 L24,0 L17,0 L17,0 Z M41,29.4999403 C41,40.8217473 31.8221715,50 20.4999403,50 C9.1779479,50 0,40.8217473 0,29.4999403 C0,18.1782527 9.1779479,9 20.4999403,9 C31.8221715,8.9998806 41,18.1781333 41,29.4999403 L41,29.4999403 L41,29.4999403 Z M36,29.4999388 C36,20.9322386 29.0661163,14 20.4999388,14 C11.9321709,14 5,20.9340737 5,29.4999388 C5,38.0676391 11.9340061,45 20.4999388,45 C29.0678291,45 36,38.066171 36,29.4999388 L36,29.4999388 L36,29.4999388 Z M25,30.1778266 C25,32.288637 23.2090159,34 21,34 C18.7908571,34 17,32.288637 17,30.1778266 C17,28.8065763 17.7561905,27.6045938 18.8914286,26.9300712 L20.3549206,16.4212783 C20.3848889,16.1847889 20.592381,16.0053288 20.8416508,16.0001112 C21.0907937,15.995015 21.3061587,16.1656174 21.3470476,16.4006507 L23.039746,26.8900294 C24.2129524,27.5561796 25,28.7789111 25,30.1778266 L25,30.1778266 L25,30.1778266 Z" id="time-9-icon"></path>
                        </g>
                    </g>
                </g>
            </g>
        </g>
    </g>
</svg>