<?xml version="1.0" encoding="UTF-8" standalone="no"?>
<svg width="22px" height="22px" viewBox="0 0 22 22" version="1.1" xmlns="http://www.w3.org/2000/svg" xmlns:xlink="http://www.w3.org/1999/xlink" xmlns:sketch="http://www.bohemiancoding.com/sketch/ns">
    <!-- Generator: Sketch 3.0.4 (8053) - http://www.bohemiancoding.com/sketch -->
    <title>lifebuoy-3-icon 2</title>
    <desc>Created with Sketch.</desc>
    <defs></defs>
    <g id="ATS-Help" stroke="none" stroke-width="1" fill="none" fill-rule="evenodd" sketch:type="MSPage">
        <g id="Artboard-1" sketch:type="MSArtboardGroup" transform="translate(-902.000000, -238.000000)" fill="#0093F0">
            <g id="Suggestion---Help-1" sketch:type="MSLayerGroup" transform="translate(91.000000, 127.000000)">
                <path d="M822,111 C815.913422,111 811,115.937932 811,122 C811,128.070024 815.921539,133 822,133 C828.07515,133 833,128.07515 833,122 C833,115.942204 828.091704,111 822,111 L822,111 Z M830.674248,117.727515 L828.348121,119.052534 C827.655762,117.565024 826.442184,116.351233 824.960762,115.657966 L826.285675,113.332107 C828.176286,114.269136 829.735723,115.82633 830.674248,117.727515 L830.674248,117.727515 Z M826.002345,126.002345 C823.785791,128.218898 820.205024,128.20982 817.997655,126.002345 C815.78767,123.792359 815.784359,120.210951 817.997655,117.997655 C820.214102,115.781209 823.795083,115.790233 826.002345,117.997655 C828.212544,120.207694 828.215534,123.789422 826.002345,126.002345 L826.002345,126.002345 Z M817.714379,113.33216 L819.039238,115.658073 C817.55899,116.350859 816.344932,117.563689 815.651879,119.052587 L813.325752,117.727568 C814.263529,115.827718 815.822432,114.269777 817.714379,113.33216 L817.714379,113.33216 Z M813.385398,126.39151 L815.709442,125.067718 C816.416432,126.513044 817.62499,127.699175 819.108335,128.373699 L817.782568,130.70116 C815.891102,129.782393 814.33599,128.251204 813.385398,126.39151 L813.385398,126.39151 Z M826.217432,130.70116 L824.891612,128.373646 C826.374422,127.699495 827.583354,126.513524 828.290558,125.067718 L830.614495,126.39151 C829.663529,128.252325 828.107723,129.782981 826.217432,130.70116 L826.217432,130.70116 Z" id="lifebuoy-3-icon-2" sketch:type="MSShapeGroup"></path>
            </g>
        </g>
    </g>
</svg>