<?xml version="1.0" encoding="UTF-8" standalone="no"?>
<svg width="44px" height="44px" viewBox="0 0 44 44" version="1.1" xmlns="http://www.w3.org/2000/svg" xmlns:xlink="http://www.w3.org/1999/xlink" xmlns:sketch="http://www.bohemiancoding.com/sketch/ns">
    <!-- Generator: Sketch 3.1 (8751) - http://www.bohemiancoding.com/sketch -->
    <title>lifebuoy-3-icon 3</title>
    <desc>Created with Sketch.</desc>
    <defs></defs>
    <g id="Page-1" stroke="none" stroke-width="1" fill="none" fill-rule="evenodd" sketch:type="MSPage">
        <path d="M22,0 C9.82684466,0 0,9.87586408 0,22 C0,34.1400485 9.84307767,44 22,44 C34.150301,44 44,34.150301 44,22 C44,9.88440777 34.1834078,0 22,0 L22,0 Z M40,13.9888171 L34.7073216,17 C33.1319838,13.6195486 30.3707079,10.8611381 27,9.28564894 L30.0145984,4 C34.3163424,6.12945262 37.8645582,9.668266 40,13.9888171 L40,13.9888171 Z M29.0698766,29.0695694 C25.1544624,32.9848233 18.8292431,32.9687888 14.9300527,29.0695694 C11.0262404,25.1659169 11.0203922,18.8398248 14.9300527,14.9303244 C18.8452783,11.0152591 25.1708748,11.0311994 29.0698766,14.9303244 C32.9740663,18.8340713 32.9793484,25.1607293 29.0698766,29.0695694 L29.0698766,29.0695694 Z M13.9855231,4 L17,9.28577029 C13.6319651,10.8601673 10.8695957,13.6163935 9.29267837,17 L4,13.9888171 C6.13374082,9.67129975 9.6807417,6.13078747 13.9855231,4 L13.9855231,4 Z M4,30.0548441 L9.2792069,27 C10.8851784,30.3353018 13.6304922,33.0724746 17,34.6290391 L13.9884395,40 C9.69185911,37.8798093 6.1593282,34.3463635 4,30.0548441 L4,30.0548441 Z M26,34.6289159 C29.3683263,33.073214 32.1145147,30.3364108 33.7209864,27 L39,30.0548441 C36.8398026,34.3489512 33.3056618,37.8811648 29.0117099,40 L26,34.6289159 Z" id="lifebuoy-3-icon-3" fill="#000000" sketch:type="MSShapeGroup"></path>
    </g>
</svg>